<svg width="121" height="114" viewBox="0 0 121 114" fill="none" xmlns="http://www.w3.org/2000/svg">
<path d="M7 93V16.5M7 93H50M7 93H6C3.79086 93 2 94.7909 2 97V101.5C2 105.366 5.13401 108.5 9 108.5H112.5C116.366 108.5 119.5 105.366 119.5 101.5V97C119.5 94.7909 117.709 93 115.5 93H114M114 93V16.5M114 93H70.5M7 16.5V11C7 8.79086 8.79086 7 11 7H110C112.209 7 114 8.79086 114 11V16.5M7 16.5H114M70.5 93V95C70.5 98.3137 67.8137 101 64.5 101H56C52.6863 101 50 98.3137 50 95V93M70.5 93H50M104.5 103H81.5M39.5 103H16.5M49.5 66L71 44.5M72.5 64.25V64.25C72.5 61.6266 70.3734 59.5 67.75 59.5H67.25C64.6266 59.5 62.5 61.6266 62.5 64.25V64.25C62.5 66.8734 64.6266 69 67.25 69H67.75C70.3734 69 72.5 66.8734 72.5 64.25ZM57 48.75V48.75C57 46.1266 54.8734 44 52.25 44H51.75C49.1266 44 47 46.1266 47 48.75V48.75C47 51.3734 49.1266 53.5 51.75 53.5H52.25C54.8734 53.5 57 51.3734 57 48.75ZM45.5622 28.0627L45.0983 28.341C44.5404 28.6758 44.4456 29.4456 44.9056 29.9056L49.1014 34.1014C49.3412 34.3412 49.7045 34.4071 50.0131 34.2668L51.0043 33.8162C53.6214 32.6266 56.5068 32.1507 59.3673 32.4367V32.4367C59.7192 32.4719 60.035 32.22 60.0789 31.8691L60.8595 25.624C60.9341 25.0272 60.4687 24.5 59.8672 24.5H58.4246C53.8935 24.5 49.4476 25.7314 45.5622 28.0627ZM31.5552 45.3627L31.2255 46.9287C31.1044 47.5041 31.5033 48.0592 32.0872 48.1279L38.6724 48.9026C39.1518 48.959 39.6031 48.6649 39.7451 48.2036L40.3708 46.1699C41.1152 43.7505 42.3616 41.5154 44.0284 39.6103L44.3839 39.2041C44.7306 38.8079 44.7107 38.2107 44.3385 37.8385L40.599 34.099C40.2533 33.7533 39.7084 33.7083 39.3107 33.9924L38.7068 34.4237C35.0366 37.0453 32.4844 40.9492 31.5552 45.3627ZM32.888 67.6209L34.4445 70.1112C34.747 70.5952 35.3925 70.7283 35.8617 70.4034L40.7755 67.0016C41.183 66.7194 41.3017 66.1694 41.0466 65.7444V65.7444C39.3802 62.9671 38.5 59.7891 38.5 56.5502V55.3892C38.5 54.8822 38.1205 54.4553 37.6168 54.3961L31.1168 53.6314C30.5223 53.5615 30 54.026 30 54.6245V57.5509C30 61.1118 31.0007 64.6012 32.888 67.6209ZM50.083 83.7759L52.7943 84.6232C53.41 84.8156 54.044 84.3834 54.09 83.74L54.45 78.7C54.48 78.2799 54.2436 77.886 53.8587 77.715L51.8856 76.8381C50.6337 76.2817 49.4585 75.5668 48.3887 74.711L45.6247 72.4998C45.2595 72.2076 44.7405 72.2076 44.3753 72.4998L40.8381 75.3295C40.3851 75.6919 40.3345 76.3624 40.728 76.7887L43.0985 79.3567C44.9995 81.4161 47.408 82.94 50.083 83.7759ZM75.6119 80.6148V80.6148C76.0884 80.285 76.1925 79.6157 75.8305 79.1631L72.9862 75.6077C72.7003 75.2503 72.2082 75.1326 71.7915 75.322L69.8729 76.1941C67.9658 77.061 65.9535 77.6744 63.8872 78.0188L61.8356 78.3607C61.3534 78.4411 61 78.8583 61 79.3471V83.9429C61 84.517 61.4823 84.9732 62.0555 84.9414L63.2383 84.8757C67.6598 84.63 71.971 83.1355 75.6119 80.6148ZM77.8967 69.2042L76.9689 70.3971C76.6921 70.7531 76.6877 71.2503 76.9583 71.611L80.3355 76.114C80.691 76.588 81.3784 76.6507 81.8138 76.2488L83.7191 74.4901C86.1993 72.2006 88.0598 69.3207 89.1271 66.1186L90.1335 63.0996C90.3266 62.5203 89.9599 61.9047 89.3586 61.7986L82.8496 60.6499C82.3615 60.5638 81.8839 60.8482 81.7272 61.3185L81.0834 63.2499C80.3663 65.401 79.2888 67.4144 77.8967 69.2042ZM75.2452 39.1724V39.1724C75.3914 39.3604 75.6536 39.4122 75.8603 39.2941L81.6996 35.9574C82.1262 35.7136 82.2454 35.1528 81.9549 34.7566V34.7566C78.7313 30.3609 74.2226 27.0742 69.0513 25.3504L68.8737 25.2912C68.4045 25.1348 67.9023 25.4151 67.7891 25.8965L66.1161 33.0066C66.0517 33.2802 66.2191 33.5548 66.4918 33.6229L66.872 33.718C70.1945 34.5486 73.1426 36.4691 75.2452 39.1724ZM79.6257 44.5668L84.6778 41.0692C85.1319 40.7548 85.7548 40.8681 86.0692 41.3222L87.5088 43.4016C89.1502 45.7725 90.2595 48.4703 90.7606 51.31L91.2679 54.1849C91.3839 54.842 90.8359 55.4262 90.1727 55.3525L83.0734 54.5637C82.747 54.5274 82.5 54.2515 82.5 53.9231V53.9231C82.5 51.0564 81.5445 48.2715 79.7845 46.0086L79.4672 45.6007C79.2135 45.2745 79.2859 44.8021 79.6257 44.5668Z" stroke="white" stroke-width="3" stroke-linecap="round" stroke-linejoin="round"/>
</svg>
