<svg width="114" height="114" viewBox="0 0 114 114" fill="none" xmlns="http://www.w3.org/2000/svg">
<path d="M67.8515 75.6106C67.8515 76.4533 67.5315 77.168 66.8915 77.7546C66.2622 78.3413 65.3449 78.6826 64.1395 78.7786V80.5866H63.1155V78.7786C62.3369 78.736 61.5955 78.592 60.8915 78.3466C60.1982 78.0906 59.6435 77.7706 59.2275 77.3866L59.8195 76.1386C60.2035 76.4906 60.6889 76.784 61.2755 77.0186C61.8622 77.2426 62.4755 77.376 63.1155 77.4186V73.7066C62.3689 73.5253 61.7449 73.328 61.2435 73.1146C60.7529 72.9013 60.3369 72.5866 59.9955 72.1706C59.6649 71.7546 59.4995 71.2106 59.4995 70.5386C59.4995 69.696 59.8035 68.9813 60.4115 68.3946C61.0302 67.808 61.9315 67.4666 63.1155 67.3706V65.5466H64.1395V67.3546C64.7475 67.376 65.3342 67.472 65.8995 67.6426C66.4755 67.8133 66.9715 68.0426 67.3875 68.3306L66.8595 69.6106C65.9955 69.0666 65.0889 68.768 64.1395 68.7146V72.4426C64.9182 72.6346 65.5582 72.8373 66.0595 73.0506C66.5609 73.2533 66.9822 73.5626 67.3235 73.9786C67.6755 74.384 67.8515 74.928 67.8515 75.6106ZM61.0675 70.4746C61.0675 70.9333 61.2435 71.2906 61.5955 71.5466C61.9475 71.8026 62.4542 72.016 63.1155 72.1866V68.7306C62.4329 68.816 61.9209 69.0186 61.5795 69.3386C61.2382 69.648 61.0675 70.0266 61.0675 70.4746ZM64.1395 77.4026C64.8542 77.3386 65.3875 77.1573 65.7395 76.8586C66.1022 76.5493 66.2835 76.1653 66.2835 75.7066C66.2835 75.2373 66.0969 74.88 65.7235 74.6346C65.3609 74.3786 64.8329 74.1546 64.1395 73.9626V77.4026Z" fill="white"/>
<path d="M74.2857 55.3333V39.619M74.2857 90.9524V97.2381H24V75.2381M49.1429 36.4762H24V45.9048M49.1429 36.4762L53.3333 31.0635M49.1429 36.4762H70.0952M84.7619 70L112 32.2857L74.2857 4L53.3333 31.0635M53.3333 31.0635L50.1905 10.8095L2 19.7143L12.4762 77.8571L24 75.2381M24 75.2381V61.0952M15.0952 32.8095L43.381 27.0476M17.7143 47.4762L24 45.9048M24 45.9048V61.0952M19.8095 62.1429L24 61.0952M72.7143 21.2857L94.7143 38.0476M83.1905 91.4762V91.4762C85.7902 90.8263 88.5404 91.588 90.4353 93.4829L101.503 104.551C102.961 106.009 102.961 108.372 101.503 109.83V109.83C100.061 111.272 97.7299 111.29 96.2656 109.872L85.6114 99.5507C83.4562 97.4627 82.5395 94.4055 83.1905 91.4762V91.4762ZM83.1905 91.4762L79 87.8095M34.4762 51.6667H70.0952M34.4762 66.8571H44.4286M34.4762 81.5238H45.4762M85.8095 50.0952L74.2857 39.619M74.2857 39.619V36.4762H70.0952M70.0952 36.4762L64.3333 32.2857M64.0714 86.7619V86.7619C71.4484 86.7619 77.4286 80.7817 77.4286 73.4048V73.4048C77.4286 66.0278 71.4484 60.0476 64.0714 60.0476V60.0476C56.6945 60.0476 50.7143 66.0278 50.7143 73.4048V73.4048C50.7143 80.7817 56.6945 86.7619 64.0714 86.7619ZM63.2857 93.0476H64.8571C75.8502 93.0476 84.7619 84.136 84.7619 73.1429V73.1429C84.7619 62.1498 75.8503 53.2381 64.8572 53.2381H63.2857C52.2926 53.2381 43.381 62.1498 43.381 73.1429V73.1429C43.381 84.136 52.2926 93.0476 63.2857 93.0476Z" stroke="white" stroke-width="3" stroke-linecap="round" stroke-linejoin="round"/>
</svg>
