<svg width="150" height="10" viewBox="0 0 150 10" fill="none" xmlns="http://www.w3.org/2000/svg">
<path d="M1 9L9.19271 1.61805C9.58006 1.26903 10.1706 1.2762 10.5493 1.63452L17.6757 8.3763C18.0479 8.72838 18.6259 8.74225 19.0145 8.40842L26.9986 1.54998C27.3683 1.23235 27.9132 1.2276 28.2885 1.53873L36.6424 8.46543C37.0133 8.77292 37.5506 8.7723 37.9208 8.46395L46.2149 1.55442C46.5968 1.2362 47.1546 1.24693 47.5241 1.5796L55.0913 8.3934C55.4717 8.73588 56.0492 8.73588 56.4296 8.3934L63.9951 1.58111C64.3653 1.24778 64.9244 1.23775 65.3063 1.55758L73.5513 8.46225C73.9207 8.77158 74.4581 8.77355 74.8297 8.46696L83.2296 1.53713C83.6056 1.22691 84.1505 1.23303 84.5195 1.55161L92.4868 8.43099C92.8625 8.7554 93.4194 8.75509 93.7947 8.43026L101.743 1.55236C102.111 1.23335 102.656 1.22665 103.032 1.53649L111.452 8.46762C111.824 8.77383 112.361 8.77128 112.73 8.46156L120.981 1.53693C121.352 1.22606 121.891 1.22478 122.263 1.53387L130.576 8.44287C130.958 8.76039 131.515 8.74936 131.884 8.41697L139.452 1.60257C139.832 1.26006 140.41 1.26008 140.79 1.60261L149 8.99591" stroke="#367BF5" stroke-width="2" stroke-linecap="round" stroke-linejoin="round"/>
</svg>
